<?xml version="1.0" standalone="no"?>
<!DOCTYPE svg PUBLIC "-//W3C//DTD SVG 1.1//EN" "http://www.w3.org/Graphics/SVG/1.1/DTD/svg11.dtd">
<svg xmlns="http://www.w3.org/2000/svg" width="256" height="256" viewBox="0 0 256 256" version="1.1" preserveAspectRatio="xMidYMid meet" style="max-width: 100%; max-height: 70vh;">
	<path d="M 158 54 C 155.592 56.408, 155.553 56.917, 157.557 59.777 C 159.406 62.417, 164.467 62.831, 165.393 60.418 C 167.926 53.818, 162.710 49.290, 158 54 M 160.500 57 C 160.160 57.550, 160.584 58, 161.441 58 C 162.298 58, 163 57.550, 163 57 C 163 56.450, 162.577 56, 162.059 56 C 161.541 56, 160.840 56.450, 160.500 57 M 173.500 60.719 C 168.071 62.042, 165.027 69.147, 167.582 74.531 C 169.313 78.180, 172.602 80, 177.464 80 C 180.467 80, 181.266 80.646, 184.795 85.932 C 193.845 99.484, 197.642 113.669, 196.707 130.432 C 196.073 141.793, 194.399 148.157, 189.193 159 C 186.351 164.918, 183.675 168.398, 176.504 175.500 C 163.823 188.057, 150.447 194.663, 135.500 195.749 C 128.124 196.285, 124.553 197.468, 125.531 199.050 C 126.381 200.425, 134.461 200.185, 142.138 198.558 C 175.050 191.582, 198.485 164.111, 200.622 130 C 201.583 114.664, 196.959 97.983, 187.834 83.864 C 184.382 78.524, 183.980 77.340, 184.915 75.287 C 187.577 69.444, 185.243 62.978, 179.785 61.075 C 178.089 60.484, 176.431 60.052, 176.101 60.116 C 175.770 60.180, 174.600 60.451, 173.500 60.719 M 120.500 64.071 C 93.363 66.991, 72.519 85.950, 65.866 113.766 C 64.298 120.323, 63.922 124.245, 64.361 129.500 C 65.525 143.444, 71.901 158.539, 80.595 167.929 L 86.114 173.890 83.128 175.434 C 79.903 177.101, 78.573 179.725, 79.599 182.396 C 80.302 184.230, 85.005 187, 87.415 187 C 88.248 187, 89.390 187.860, 89.952 188.911 C 91.653 192.089, 97.380 195, 101.934 195 C 106.736 195, 109.256 193.909, 113.500 189.990 C 115.150 188.467, 117.625 186.893, 119 186.492 C 122.618 185.438, 125 183.026, 125 180.418 C 125 178.088, 120.796 174, 118.400 174 C 117.668 174, 115.591 172.716, 113.785 171.147 C 109.009 166.998, 106.666 166, 101.705 166 C 98.633 166, 96.152 166.765, 93.595 168.500 C 91.569 169.875, 89.546 171, 89.101 171 C 87.018 171, 77.972 159.720, 74.663 152.996 C 68.307 140.081, 66.742 128.262, 69.527 114.208 C 74.935 86.921, 98.273 67.967, 126.622 67.838 C 157.405 67.697, 182.344 90.147, 185.804 121.111 C 186.456 126.941, 188.138 129.725, 189.238 126.792 C 190.106 124.477, 188.101 111.641, 185.934 105.649 C 182.704 96.715, 177.836 89.131, 170.511 81.624 C 165.153 76.132, 162.075 73.972, 154.680 70.514 C 141.861 64.521, 132.582 62.772, 120.500 64.071 M 172 66 C 167.933 70.067, 170.368 76.333, 176.014 76.333 C 180.043 76.333, 183.381 72.822, 182.405 69.611 C 180.722 64.073, 175.678 62.322, 172 66 M 113 78.886 C 109.975 79.864, 105.623 81.631, 103.328 82.812 C 97.592 85.766, 87.612 95.211, 84.677 100.462 C 81.621 105.931, 78 116.551, 78 120.048 C 78 121.511, 76.875 123.922, 75.500 125.405 C 74.104 126.911, 73 129.307, 73 130.829 C 73 137.655, 79.880 140.511, 83.927 135.365 C 86.674 131.873, 86.541 129.450, 83.431 126.340 C 81.193 124.102, 80.951 123.240, 81.551 119.636 C 84.163 103.937, 95.842 89.206, 109.847 83.949 C 118.318 80.769, 125.308 79.909, 133.381 81.054 C 164.003 85.397, 181.280 118.483, 167.560 146.509 C 160.918 160.077, 149.036 168.725, 133.578 171.242 C 128.640 172.046, 125.482 173.054, 125.194 173.918 C 124.816 175.051, 126.176 175.205, 132.637 174.762 C 147.619 173.735, 162.520 164.184, 169.261 151.285 C 174.043 142.135, 176 135, 176 126.713 C 176 112.716, 171.242 101.057, 161.593 91.407 C 151.721 81.536, 140.557 76.961, 126.568 77.054 C 121.706 77.086, 116.315 77.814, 113 78.886 M 125.146 96.703 C 124.316 98.187, 123.974 98.224, 122.489 96.991 C 121.008 95.762, 120.628 95.788, 119.603 97.190 C 118.805 98.282, 117.523 98.631, 115.638 98.271 C 113.320 97.828, 112.907 98.055, 113.176 99.619 C 113.437 101.135, 112.966 101.444, 110.750 101.212 C 108.539 100.981, 108 101.332, 108 103.006 C 108 104.151, 107.438 105.015, 106.750 104.925 C 103.620 104.519, 102.973 105.045, 103.589 107.500 C 104.115 109.596, 103.863 110, 102.029 110 C 100.118 110, 99.925 110.380, 100.500 113 C 101.067 115.583, 100.870 116, 99.079 116 C 96.835 116, 96.199 118.533, 98.250 119.302 C 99.118 119.627, 98.888 120.264, 97.500 121.385 L 95.500 123 97.500 124.558 C 99.374 126.017, 99.390 126.178, 97.750 127.107 C 95.609 128.321, 95.437 131, 97.500 131 C 99.315 131, 99.464 133.136, 97.767 134.833 C 96.790 135.810, 97.008 136.189, 98.818 136.663 C 100.769 137.173, 101.005 137.700, 100.439 140.276 C 99.842 142.995, 99.987 143.237, 101.913 142.733 C 103.740 142.255, 104.009 142.559, 103.774 144.837 C 103.544 147.069, 103.864 147.461, 105.750 147.262 C 107.347 147.093, 108 147.552, 108 148.845 C 108 151.400, 108.971 152.086, 111.028 150.985 C 112.452 150.223, 112.914 150.520, 113.416 152.520 C 114.060 155.086, 115.424 155.741, 116.500 154 C 117.420 152.512, 119 152.791, 119 154.441 C 119 156.664, 121.154 157.476, 122.181 155.640 C 123.455 153.364, 124.654 153.592, 125.390 156.250 L 126.013 158.500 127.956 156 C 129.838 153.579, 129.944 153.560, 131.298 155.403 C 132.784 157.424, 135 156.849, 135 154.441 C 135 152.720, 136.178 152.578, 137.713 154.113 C 139.211 155.611, 141 154.362, 141 151.819 C 141 150.125, 141.261 149.972, 142.456 150.964 C 144.439 152.609, 146.228 151.295, 145.430 148.780 C 144.854 146.964, 145.088 146.805, 147.466 147.402 C 149.947 148.025, 150.128 147.862, 149.827 145.288 C 149.575 143.137, 149.883 142.563, 151.175 142.777 C 153.423 143.148, 154.456 141.255, 152.977 139.473 C 152.002 138.298, 152.287 137.841, 154.523 136.991 C 157.107 136.009, 157.169 135.844, 155.604 134.115 C 154.047 132.395, 154.086 132.181, 156.222 130.667 C 158.460 129.082, 158.466 129.027, 156.559 127.527 C 154.637 126.015, 154.637 125.985, 156.559 124.500 C 158.480 123.015, 158.480 122.985, 156.554 121.496 C 155.043 120.329, 154.875 119.725, 155.804 118.796 C 157.550 117.050, 157.270 116, 155.059 116 C 152.808 116, 151.498 114.428, 152.984 113.510 C 154.992 112.269, 154.020 110, 151.481 110 C 149.271 110, 149.042 109.683, 149.611 107.415 C 150.185 105.125, 149.988 104.868, 147.880 105.165 C 145.876 105.447, 145.553 105.124, 145.835 103.120 C 146.132 101.012, 145.875 100.815, 143.585 101.389 C 141.420 101.933, 141 101.697, 141 99.940 C 141 98.149, 140.579 97.934, 138.127 98.472 C 136.035 98.932, 135.092 98.681, 134.658 97.552 C 133.944 95.691, 131.376 95.498, 130.646 97.250 C 130.267 98.160, 129.738 98.023, 128.703 96.750 C 126.927 94.567, 126.346 94.559, 125.146 96.703 M 118.822 102.929 C 114.946 104.173, 109.625 108.491, 106.614 112.835 C 103.519 117.302, 103.216 119.019, 105.963 116.534 C 107.132 115.475, 108.618 115.023, 109.639 115.415 C 111.072 115.965, 110.585 116.852, 106.677 120.821 C 104.104 123.432, 102 126.116, 102 126.784 C 102 128.800, 104.504 128.157, 107 125.500 C 109.494 122.845, 112 122.200, 112 124.212 C 112 124.879, 110.139 127.320, 107.865 129.638 C 104.935 132.623, 103.925 134.362, 104.400 135.599 C 104.971 137.087, 105.734 136.696, 109.531 132.969 C 113.022 129.544, 114.255 128.855, 115.202 129.802 C 116.149 130.749, 115.378 132.063, 111.656 135.842 C 107.781 139.776, 107.153 140.882, 108.269 141.808 C 109.347 142.703, 110.569 141.995, 114.027 138.472 C 116.441 136.013, 118.773 134, 119.208 134 C 121.184 134, 119.668 137.756, 116.299 141.206 C 113.414 144.160, 112.863 145.263, 113.800 146.200 C 114.737 147.137, 115.840 146.586, 118.794 143.701 C 120.879 141.666, 123.128 140, 123.792 140 C 125.919 140, 125.089 142.540, 121.993 145.506 C 119.964 147.451, 119.316 148.716, 120 149.400 C 120.683 150.083, 122.565 148.884, 125.791 145.706 C 128.419 143.118, 131.116 141, 131.784 141 C 133.913 141, 133.092 144.456, 130.500 146.403 C 127.578 148.597, 127.280 150.012, 129.750 149.972 C 130.713 149.956, 133.666 147.931, 136.313 145.472 C 141.403 140.742, 142.513 140.234, 143.356 142.250 C 144.185 144.233, 148.663 138.275, 150.040 133.357 C 153.043 122.633, 148.752 111.215, 139.593 105.552 C 135.667 103.125, 133.473 102.505, 128.119 102.310 C 124.479 102.178, 120.295 102.457, 118.822 102.929 M 77.141 129.330 C 75.442 131.378, 76.836 134.166, 79.377 133.803 C 80.891 133.587, 81.500 132.786, 81.500 131.014 C 81.500 128.161, 78.934 127.170, 77.141 129.330 M 97.595 170.486 C 92.542 173.193, 89.927 179.126, 92.044 183.082 C 92.945 184.766, 94.229 185, 102.557 185 C 111.522 185, 112.101 184.872, 113.105 182.668 C 113.906 180.912, 113.798 179.452, 112.667 176.746 C 110.083 170.560, 102.971 167.607, 97.595 170.486 M 84.660 179.250 C 82.976 180.490, 82.957 180.719, 84.434 181.945 C 86.402 183.579, 87.272 182.885, 86.831 180.033 C 86.538 178.142, 86.287 178.051, 84.660 179.250 M 117 180.500 C 117 183.222, 117.085 183.288, 119.418 182.393 C 122.171 181.337, 120.652 178, 117.418 178 C 117.188 178, 117 179.125, 117 180.500 M 98 190.500 C 101.104 192.275, 102.689 192.281, 106.500 190.536 C 109.389 189.213, 109.240 189.161, 102.500 189.117 C 95.943 189.074, 95.658 189.161, 98 190.500" stroke="none" fill="#ffffff" fill-rule="evenodd"/>
</svg>