<?xml version="1.0" encoding="UTF-8"?>
<svg width="1024" height="1024" viewBox="0 0 1024 1024" xmlns="http://www.w3.org/2000/svg">
  <defs>
    <filter id="neon-glow">
      <feGaussianBlur stdDeviation="3" result="coloredBlur"/>
      <feMerge>
        <feMergeNode in="coloredBlur"/>
        <feMergeNode in="SourceGraphic"/>
      </feMerge>
    </filter>
  </defs>
  <path id="lightning" d="M 407.357,777.055 C 404.249,775.733 402,772.044 402,768.267 C 402,766.458 406.683,750.021 412.406,731.739 C 418.129,713.458 428.962,678.700 436.477,654.500 C 443.992,630.300 452.095,604.425 454.482,597 C 458.427,584.733 474.488,532.947 475.650,528.750 C 476.106,527.102 473.489,527 430.713,527 C 430.713,527 385.292,527 385.292,527 C 385.292,527 382.686,524.585 382.686,524.585 C 377.284,519.579 376.890,521.761 392.473,470.500 C 397.823,452.900 405.490,427.250 409.510,413.500 C 413.530,399.750 420.039,377.475 423.975,364 C 427.911,350.525 434.910,326.675 439.528,311 C 444.146,295.325 449.943,275.525 452.410,267 C 456.200,253.903 457.371,251.074 459.963,248.750 C 459.963,248.750 463.032,246 463.032,246 C 463.032,246 548.116,246 548.116,246 C 548.116,246 633.200,246 633.200,246 C 633.200,246 636.600,249.400 636.600,249.400 C 639.017,251.817 640,253.704 640,255.927 C 640,259.452 632.970,273.772 585.538,366.863 C 568.192,400.906 554,429.559 554,430.535 C 554,432.215 556.175,432.280 594.761,431.745 C 638.500,431.139 639.976,431.271 643.372,436.120 C 644.268,437.399 645,440.054 645,442.022 C 645,445.813 638.252,456.276 595.488,518.798 C 585.595,533.262 565.636,562.512 551.135,583.798 C 520.505,628.760 469.699,702.422 446.502,735.500 C 437.631,748.150 428.096,761.875 425.312,766 C 422.528,770.125 419.350,774.307 418.249,775.293 C 415.862,777.432 410.342,778.324 407.357,777.055M 449.047,697.214 C 452.648,691.871 467.687,669.950 482.469,648.500 C 506.956,612.966 535.345,571.424 565.842,526.500 C 572.189,517.150 586.071,496.805 596.691,481.288 C 607.311,465.771 616,452.834 616,452.538 C 616,452.242 597.290,452 574.423,452 C 574.423,452 532.846,452 532.846,452 C 532.846,452 529.923,449.077 529.923,449.077 C 524.150,443.304 524.124,443.376 553.389,385.599 C 567.903,356.945 587.021,319.437 595.871,302.249 C 604.721,285.061 612.245,269.870 612.591,268.492 C 612.591,268.492 613.220,265.986 613.220,265.986 C 613.220,265.986 543.422,266.243 543.422,266.243 C 543.422,266.243 473.623,266.500 473.623,266.500 C 473.623,266.500 470.244,278 470.244,278 C 468.385,284.325 462.876,303 458.001,319.500 C 440.810,377.686 431.067,410.699 425.686,429 C 422.694,439.175 416.366,460.625 411.623,476.666 C 406.880,492.707 403,506.095 403,506.416 C 403,506.737 423.280,507 448.066,507 C 477.062,507 493.817,507.368 495.055,508.030 C 497.953,509.581 500.290,514.830 499.700,518.464 C 499.056,522.434 474.420,601.388 451.923,671.582 C 445.915,690.327 441,705.965 441,706.332 C 441,708.386 443.190,705.904 449.047,697.214" fill="none" stroke="#A118E9" stroke-width="4" stroke-linecap="round" stroke-linejoin="round" filter="url(#neon-glow)" />
</svg>
